<?xml version="1.0" encoding="utf-8"?>
<!DOCTYPE svg PUBLIC "-//W3C//DTD SVG 1.1//EN" "http://www.w3.org/Graphics/SVG/1.1/DTD/svg11.dtd">
<svg
  version="1.1"
  id="Layer_1"
  xmlns="http://www.w3.org/2000/svg"
  xmlns:xlink="http://www.w3.org/1999/xlink"
  x="0px"
  y="0px"
  viewBox="550.1 286.9 108.7 109.7"
  style="enable-background:new 550.1 286.9 415.8 110.5;"
  xml:space="preserve">

<style type="text/css">
  .red{fill:#d71d4f;}
  .black{fill:#212121;}
</style>

<path
  class="red"
  d="M579.7,316.7l-7.1-7.1v51.2l0.1,2.4c0,1.1,0.2,2.4,0.6,3.7l56.2,19.8l14-6.2l0,0L579.7,316.7z"/>
<path
  class="black"
  d="M573.3,366.9L573.3,366.9L573.3,366.9L573.3,366.9z M643.5,380.5l-14,6.2l-56.1-19.8c1.1,4.1,3.4,8.7,6,11.3 l18.3,18.2l40.8,0.1L643.5,380.5L643.5,380.5z"/>
<path
  class="black"
  d="M572.8,309.6l-21.8,33c-1.8,1.9-0.9,5.9,2,8.9l12.6,12.7l7.9,2.8c-0.3-1.3-0.6-2.6-0.6-3.7l-0.1-2.4 L572.8,309.6L572.8,309.6z"/>
<path
  class="black"
  d="M629.9,310.2c-1.3-0.3-2.6-0.5-3.7-0.6l-2.5-0.1h-51.1l70.9,70.9l0,0l6.2-14L629.9,310.2z"/>
<path
  class="red"
  d="M629.8,310.2C629.9,310.2,629.9,310.2,629.8,310.2L629.8,310.2C629.9,310.2,629.9,310.2,629.8,310.2z M641.2,316.2c-2.6-2.6-7.1-5-11.3-6l19.8,56.2l-6.2,14l0,0l15.2-4.9v-41.7L641.2,316.2z"/>
<path
  class="red"
  d="M627.1,302.4l-12.7-12.6c-2.9-2.9-6.9-3.8-8.9-2l-33,21.8h51.1l2.5,0.1c1.1,0,2.4,0.2,3.7,0.6L627.1,302.4z"/>
</svg>
